<svg width="146" height="111" viewBox="0 0 146 111" fill="none" xmlns="http://www.w3.org/2000/svg">
<path d="M76.8246 13.9164C58.4222 28.9373 45.4518 45.5045 37.9134 63.6179L56.8702 82.8358C56.8702 90.5672 53.9879 97.194 48.2232 102.716C42.6803 108.239 36.0289 111 28.2688 111C20.287 111 13.5247 108.349 7.98178 103.048C2.66059 97.5254 0 90.7881 0 82.8358C0 66.4896 7.09491 50.5851 21.2847 35.1224C35.6963 19.6597 50.5513 7.95224 65.8497 0L76.8246 13.9164ZM146 13.9164C127.598 28.9373 114.627 45.5045 107.089 63.6179L126.046 82.8358C126.046 90.5672 123.163 97.194 117.399 102.716C111.856 108.239 105.204 111 97.4442 111C89.4624 111 82.7001 108.349 77.1572 103.048C71.836 97.5254 69.1754 90.7881 69.1754 82.8358C69.1754 66.4896 76.2703 50.5851 90.4601 35.1224C104.872 19.6597 119.727 7.95224 135.025 0L146 13.9164Z" fill="#F72062"/>
<mask id="mask0_564:3765" style="mask-type:alpha" maskUnits="userSpaceOnUse" x="0" y="0" width="146" height="111">
<path d="M76.8246 13.9164C58.4222 28.9373 45.4518 45.5045 37.9134 63.6179L56.8702 82.8358C56.8702 90.5672 53.9879 97.194 48.2232 102.716C42.6803 108.239 36.0289 111 28.2688 111C20.287 111 13.5247 108.349 7.98178 103.048C2.66059 97.5254 0 90.7881 0 82.8358C0 66.4896 7.09491 50.5851 21.2847 35.1224C35.6963 19.6597 50.5513 7.95224 65.8497 0L76.8246 13.9164ZM146 13.9164C127.598 28.9373 114.627 45.5045 107.089 63.6179L126.046 82.8358C126.046 90.5672 123.163 97.194 117.399 102.716C111.856 108.239 105.204 111 97.4442 111C89.4624 111 82.7001 108.349 77.1572 103.048C71.836 97.5254 69.1754 90.7881 69.1754 82.8358C69.1754 66.4896 76.2703 50.5851 90.4601 35.1224C104.872 19.6597 119.727 7.95224 135.025 0L146 13.9164Z" fill="#FB1F61"/>
</mask>
<g mask="url(#mask0_564:3765)">
<path d="M-15.8237 206.425C-46.6151 206.425 -71.6465 179.265 -71.6465 145.672C-71.6465 112.078 -46.6151 84.918 -15.8237 84.918C14.9676 84.918 39.999 112.078 39.999 145.672C39.999 179.265 14.9676 206.425 -15.8237 206.425Z" stroke="white"/>
<path d="M-9.8949 208.843C-44.3699 208.843 -72.3874 178.435 -72.3874 140.835C-72.3874 103.236 -44.3699 72.828 -9.89489 72.828C24.5801 72.828 52.5977 103.236 52.5977 140.835C52.5977 178.435 24.5801 208.843 -9.8949 208.843Z" stroke="white"/>
<path d="M-5.0785 211.261C-42.8279 211.261 -73.4998 177.967 -73.4998 136.806C-73.4998 95.6452 -42.8279 62.3508 -5.0785 62.3508C32.6708 62.3508 63.3428 95.6452 63.3428 136.806C63.3428 177.967 32.6708 211.261 -5.0785 211.261Z" stroke="white"/>
<path d="M1.9624 212.873C-38.652 212.873 -71.6465 177.053 -71.6465 132.776C-71.6465 88.4996 -38.652 52.6793 1.96241 52.6793C42.5768 52.6793 75.5713 88.4996 75.5713 132.776C75.5713 177.053 42.5768 212.873 1.9624 212.873Z" stroke="white"/>
<path d="M8.81747 214.485C-34.5596 214.485 -69.7938 176.229 -69.7938 128.947C-69.7938 81.6662 -34.5596 43.4102 8.81747 43.4102C52.1946 43.4102 87.4287 81.6662 87.4287 128.947C87.4287 176.229 52.1946 214.485 8.81747 214.485Z" stroke="white"/>
<path d="M16.5985 216.5C-31.0761 216.5 -69.7941 174.455 -69.7941 122.5C-69.7941 70.5449 -31.0761 28.5 16.5985 28.5C64.2732 28.5 102.991 70.5449 102.991 122.5C102.991 174.455 64.2732 216.5 16.5985 216.5Z" stroke="white"/>
</g>
</svg>
