<svg width="157" height="409" viewBox="0 0 157 409" fill="none" xmlns="http://www.w3.org/2000/svg">
<path d="M13.8491 22.3745C25.1945 8.61986 53.882 -12.528 77.8694 12.9182C101.857 38.3644 69.4954 85.99 50.3163 106.622C40.8619 112.353 21.1426 122.096 17.901 115.219C13.8491 106.622 11.418 88.569 44.6437 73.095C65.9837 63.9252 112.068 54.1823 125.682 88.569C131.895 103.47 132.975 138.086 87.594 157.342L30.8671 182.273M30.8671 182.273C9.25694 183.139 -21.8077 172.832 26.8152 124.675C42.2125 117.225 79.4902 102.152 105.422 101.464C120.279 104.616 148.859 120.205 144.321 157.342C144.861 164.793 134.758 183.304 90.0252 197.747C79.7603 200.039 56.7995 204.796 47.0749 205.484L12.2284 210.642L30.8671 182.273ZM30.8671 182.273C45.0472 178.261 78.5137 171.441 98.9394 176.255C124.472 182.273 134.596 177.115 154.856 210.642C158.367 227.835 155.828 263.082 117.578 266.52C79.3281 269.959 54.6385 263.368 47.0749 259.643V227.835M47.0749 227.835C74.898 230.414 134.596 228.523 150.804 200.326C158.638 180.267 159.232 139.289 98.9394 135.851C84.3525 136.424 53.2338 138.258 45.4541 141.009L47.0749 202.045C75.4383 204.624 135.082 216.831 146.752 245.029C152.965 261.362 155.018 295.749 113.526 302.626C98.129 303.199 63.2826 301.079 47.0749 288.012M47.0749 227.835V288.012M47.0749 227.835C64.6332 232.133 103.315 243.997 117.578 257.064C134.866 271.392 160.204 306.925 123.251 334.434C111.635 338.732 80.7867 342.171 50.3163 321.539M47.0749 288.012L50.3163 321.539M47.0749 288.012C66.5241 301.767 106.233 335.122 109.474 358.505C110.825 372.832 107.205 402.692 81.9214 407.506C75.4383 408.652 59.3927 408.537 47.0749 398.909L50.3163 321.539" stroke="#84829A" stroke-width="2"/>
</svg>
