<svg width="569" height="647" viewBox="0 0 569 647" fill="none" xmlns="http://www.w3.org/2000/svg">
<path d="M160.548 611.647C54.5237 611.647 -31.4962 518.087 -31.4962 402.583C-31.4962 287.079 54.5237 193.519 160.548 193.519C266.571 193.519 352.591 287.08 352.591 402.583C352.591 518.087 266.571 611.647 160.548 611.647Z" stroke="#E9E5FC"/>
<path d="M180.815 619.918C62.1988 619.918 -34.0296 515.247 -34.0296 386.037C-34.0296 256.828 62.1988 152.156 180.815 152.156C299.432 152.156 395.66 256.828 395.66 386.037C395.66 515.247 299.432 619.918 180.815 619.918Z" stroke="#E9E5FC"/>
<path d="M197.283 628.193C67.4727 628.193 -37.8299 513.645 -37.8299 372.253C-37.8299 230.86 67.4727 116.312 197.283 116.312C327.093 116.312 432.396 230.86 432.396 372.253C432.396 513.645 327.093 628.193 197.283 628.193Z" stroke="#E9E5FC"/>
<path d="M221.351 633.709C81.7465 633.709 -31.496 510.52 -31.496 358.467C-31.496 206.414 81.7465 83.2243 221.351 83.2243C360.956 83.2243 474.198 206.414 474.198 358.467C474.198 510.52 360.956 633.709 221.351 633.709Z" stroke="#E9E5FC"/>
<path d="M244.786 639.223C95.7367 639.223 -25.1621 507.7 -25.1621 345.368C-25.1621 183.035 95.7368 51.5126 244.786 51.5126C393.835 51.5126 514.734 183.035 514.734 345.368C514.734 507.7 393.835 639.223 244.786 639.223Z" stroke="#E9E5FC"/>
<path d="M271.387 646.116C107.646 646.116 -25.1624 501.631 -25.1624 323.308C-25.1624 144.985 107.646 0.499978 271.387 0.499986C435.128 0.499994 567.937 144.985 567.937 323.308C567.937 501.631 435.128 646.116 271.387 646.116Z" stroke="#E9E5FC"/>
<path d="M93.5947 248.872C81.9677 248.872 72.5421 239.446 72.5421 227.819C72.5421 216.192 81.9677 206.767 93.5947 206.767C105.222 206.767 114.647 216.192 114.647 227.819C114.647 239.446 105.222 248.872 93.5947 248.872Z" fill="url(#paint0_linear)"/>
<path d="M126.677 280.451C126.677 283.859 129.284 286.466 132.692 286.466C136.101 286.466 138.708 283.859 138.708 280.451C138.708 277.042 136.101 274.436 132.692 274.436C129.284 274.436 126.677 277.042 126.677 280.451Z" fill="url(#paint1_linear)"/>
<path d="M-37.7816 266.917C-75.4576 266.917 -106 236.621 -106 199.248C-106 161.875 -75.4576 131.579 -37.7816 131.579C-0.105553 131.579 30.4369 161.875 30.4369 199.248C30.4369 236.621 -0.105553 266.917 -37.7816 266.917Z" fill="white"/>
<path d="M173.233 469.466C224.724 469.466 266.466 427.724 266.466 376.233C266.466 324.742 224.724 283 173.233 283C121.742 283 80 324.742 80 376.233C80 427.724 121.742 469.466 173.233 469.466Z" fill="#EEF0F6"/>
<defs>
<linearGradient id="paint0_linear" x1="107.588" y1="212.109" x2="71.4181" y2="239.951" gradientUnits="userSpaceOnUse">
<stop offset="0.00128142" stop-color="#FB1F61"/>
<stop offset="1" stop-color="#F35282"/>
<stop offset="1" stop-color="#F35282"/>
</linearGradient>
<linearGradient id="paint1_linear" x1="136.691" y1="275.962" x2="126.356" y2="283.917" gradientUnits="userSpaceOnUse">
<stop offset="0.00128142" stop-color="#FB1F61"/>
<stop offset="1" stop-color="#F35282"/>
<stop offset="1" stop-color="#F35282"/>
</linearGradient>
</defs>
</svg>
