<svg width="535" height="430" viewBox="0 0 535 430" fill="none" xmlns="http://www.w3.org/2000/svg">
<mask id="mask0" style="mask-type:alpha" maskUnits="userSpaceOnUse" x="0" y="0" width="535" height="430">
<rect x="534.5" y="0.5" width="429" height="534" transform="rotate(90 534.5 0.5)" fill="url(#paint0_linear)" stroke="#6246E5"/>
</mask>
<g mask="url(#mask0)">
<path d="M196.016 552.527C112.909 552.527 45.4684 479.369 45.4684 389.036C45.4684 298.702 112.909 225.544 196.016 225.544C279.124 225.544 346.564 298.702 346.564 389.036C346.564 479.369 279.124 552.527 196.016 552.527Z" stroke="#E9E5FC"/>
<path d="M211.917 559C118.93 559 43.4813 477.147 43.4813 376.088C43.4813 275.029 118.93 193.177 211.917 193.177C304.903 193.177 380.352 275.029 380.352 376.088C380.352 477.147 304.903 559 211.917 559Z" stroke="#E9E5FC"/>
<path d="M224.835 565.475C123.068 565.475 40.5 475.893 40.5 365.301C40.5 254.709 123.068 165.127 224.835 165.127C326.603 165.127 409.17 254.709 409.17 365.301C409.17 475.893 326.603 565.475 224.835 565.475Z" stroke="#E9E5FC"/>
<path d="M243.716 569.791C134.265 569.791 45.4688 473.447 45.4688 354.513C45.4688 235.579 134.265 139.235 243.716 139.235C353.167 139.235 441.964 235.579 441.964 354.513C441.964 473.447 353.167 569.791 243.716 569.791Z" stroke="#E9E5FC"/>
<path d="M262.1 574.106C145.24 574.106 50.4375 471.241 50.4375 344.262C50.4375 217.284 145.24 114.419 262.1 114.419C378.961 114.419 473.763 217.284 473.763 344.262C473.763 471.241 378.961 574.106 262.1 574.106Z" stroke="#E9E5FC"/>
<path d="M282.969 579.5C154.583 579.5 50.4374 466.491 50.4374 327C50.4374 187.509 154.583 74.5 282.969 74.5C411.354 74.5 515.5 187.509 515.5 327C515.5 466.491 411.354 579.5 282.969 579.5Z" stroke="#E9E5FC"/>
</g>
<defs>
<linearGradient id="paint0_linear" x1="839.973" y1="15.01" x2="573.763" y2="554.14" gradientUnits="userSpaceOnUse">
<stop stop-color="#747DEF"/>
<stop offset="1" stop-color="#5E3BE1"/>
</linearGradient>
</defs>
</svg>
