<svg width="571" height="676" viewBox="0 0 571 676" fill="none" xmlns="http://www.w3.org/2000/svg">
<mask id="mask0_564:6312" style="mask-type:alpha" maskUnits="userSpaceOnUse" x="54" y="0" width="517" height="556">
<path d="M54 40C54 17.9086 71.9086 0 94 0H571V556H94C71.9086 556 54 538.091 54 516V40Z" fill="white"/>
</mask>
<g mask="url(#mask0_564:6312)">
<g opacity="0.1">
<path d="M5.76496 957.36C-137.567 957.36 -253.944 810.884 -253.944 629.943C-253.944 449.002 -137.567 302.525 5.76498 302.525C149.097 302.525 265.474 449.002 265.474 629.943C265.474 810.884 149.097 957.36 5.76496 957.36Z" stroke="#6246E5" stroke-width="0.996198"/>
<path d="M33.1561 970.302C-127.194 970.302 -257.366 806.44 -257.366 604.053C-257.366 401.665 -127.194 237.803 33.1561 237.804C193.506 237.804 323.679 401.665 323.679 604.053C323.679 806.44 193.506 970.302 33.1561 970.302Z" stroke="#6246E5" stroke-width="0.996198"/>
<path d="M55.4104 983.246C-120.067 983.246 -262.502 803.931 -262.502 582.48C-262.502 361.029 -120.067 181.713 55.4105 181.713C230.888 181.713 373.323 361.029 373.323 582.48C373.323 803.931 230.888 983.246 55.4104 983.246Z" stroke="#6246E5" stroke-width="0.996198"/>
<path d="M87.9372 991.878C-100.776 991.878 -253.942 799.04 -253.942 560.909C-253.942 322.778 -100.776 129.939 87.9372 129.939C276.651 129.939 429.816 322.778 429.816 560.909C429.816 799.04 276.651 991.878 87.9372 991.878Z" stroke="#6246E5" stroke-width="0.996198"/>
<path d="M119.607 1000.5C-81.8699 1000.5 -245.383 794.628 -245.383 540.411C-245.383 286.195 -81.8699 80.318 119.607 80.318C321.084 80.318 484.597 286.195 484.597 540.412C484.597 794.628 321.084 1000.5 119.607 1000.5Z" stroke="#6246E5" stroke-width="0.996198"/>
<path d="M155.556 1011.29C-65.7755 1011.29 -245.383 785.133 -245.383 505.896C-245.383 226.659 -65.7755 0.498069 155.556 0.49808C376.887 0.49809 556.495 226.659 556.495 505.896C556.495 785.133 376.887 1011.29 155.556 1011.29Z" stroke="#6246E5" stroke-width="0.996198"/>
</g>
</g>
</svg>
