<svg width="616" height="860" viewBox="0 0 616 860" fill="none" xmlns="http://www.w3.org/2000/svg">
<path d="M264.507 813.657C123.391 813.657 8.92381 689.134 8.92382 535.436C8.92382 381.738 123.391 257.216 264.507 257.216C405.623 257.216 520.091 381.739 520.091 535.436C520.091 689.134 405.623 813.657 264.507 813.657Z" stroke="#E9E5FC"/>
<path d="M291.464 824.657C133.6 824.657 5.55473 685.357 5.55474 513.43C5.55474 341.504 133.6 202.203 291.464 202.203C449.328 202.203 577.373 341.504 577.373 513.43C577.373 685.357 449.328 824.657 291.464 824.657Z" stroke="#E9E5FC"/>
<path d="M313.365 835.662C140.613 835.662 0.499735 683.227 0.499742 495.096C0.49975 306.966 140.613 154.53 313.365 154.53C486.117 154.53 626.23 306.966 626.23 495.096C626.23 683.227 486.117 835.662 313.365 835.662Z" stroke="#E9E5FC"/>
<path d="M345.376 842.999C159.598 842.999 8.92411 679.069 8.92412 476.761C8.92413 274.453 159.598 110.523 345.376 110.523C531.154 110.523 681.828 274.453 681.828 476.761C681.828 679.07 531.154 842.999 345.376 842.999Z" stroke="#E9E5FC"/>
<path d="M376.544 850.332C178.204 850.332 17.3478 675.319 17.3478 459.339C17.3478 243.36 178.204 68.3469 376.544 68.3469C574.884 68.3469 735.74 243.36 735.74 459.339C735.74 675.319 574.884 850.332 376.544 850.332Z" stroke="#E9E5FC"/>
<path d="M411.924 859.5C194.044 859.5 17.3476 667.247 17.3476 430C17.3476 192.753 194.044 0.499971 411.924 0.499981C629.803 0.499992 806.5 192.753 806.5 430C806.5 667.247 629.803 859.5 411.924 859.5Z" stroke="#E9E5FC"/>
<path d="M452 700C467.464 700 480 687.464 480 672C480 656.536 467.464 644 452 644C436.536 644 424 656.536 424 672C424 687.464 436.536 700 452 700Z" fill="url(#paint0_linear)"/>
<path d="M408 742C408 746.533 404.533 750 400 750C395.467 750 392 746.533 392 742C392 737.467 395.467 734 400 734C404.533 734 408 737.467 408 742Z" fill="url(#paint1_linear)"/>
<path d="M626.731 724C676.84 724 717.461 683.706 717.461 634C717.461 584.294 676.84 544 626.731 544C576.621 544 536 584.294 536 634C536 683.706 576.621 724 626.731 724Z" fill="white"/>
<defs>
<linearGradient id="paint0_linear" x1="433.388" y1="651.105" x2="481.495" y2="688.136" gradientUnits="userSpaceOnUse">
<stop offset="0.00128142" stop-color="#FB1F61"/>
<stop offset="1" stop-color="#F35282"/>
<stop offset="1" stop-color="#F35282"/>
</linearGradient>
<linearGradient id="paint1_linear" x1="394.682" y1="736.03" x2="408.427" y2="746.61" gradientUnits="userSpaceOnUse">
<stop offset="0.00128142" stop-color="#FB1F61"/>
<stop offset="1" stop-color="#F35282"/>
<stop offset="1" stop-color="#F35282"/>
</linearGradient>
</defs>
</svg>
